<?xml version="1.0" encoding="utf-8"?>
<!-- Generator: Adobe Illustrator 17.0.0, SVG Export Plug-In . SVG Version: 6.00 Build 0)  -->
<!DOCTYPE svg PUBLIC "-//W3C//DTD SVG 1.1//EN" "http://www.w3.org/Graphics/SVG/1.1/DTD/svg11.dtd">
<svg version="1.1" id="Layer_1" xmlns="http://www.w3.org/2000/svg" xmlns:xlink="http://www.w3.org/1999/xlink" x="0px" y="0px"
	 width="320px" height="480px" viewBox="0 0 320 480" enable-background="new 0 0 320 480" xml:space="preserve">
<path fill="#666666" d="M226.392,305.44c0,3.551-0.518,7.781-5.067,7.781c-4.789,0-5.308-3.99-5.308-7.901
	c0-3.512,0.639-7.741,5.108-7.741C225.834,297.579,226.392,301.689,226.392,305.44 M231.5,305.28
	c0-6.464-3.432-11.053-10.255-11.053c-6.345,0-10.216,4.19-10.216,11.173c0,6.544,3.751,11.053,10.415,11.053
	C228.427,316.453,231.5,311.824,231.5,305.28 M194.126,294.546h-4.629v21.588h4.629V294.546z M167.67,305.759
	c0,3.551-1.078,6.824-5.068,6.824h-2.833v-14.605h2.314C166.712,297.978,167.67,301.888,167.67,305.759 M172.618,305.4
	c0-6.425-2.953-9.098-6.664-10.256c-1.716-0.518-3.751-0.598-5.906-0.598h-4.789v21.588h5.986c1.915,0,2.913-0.04,4.469-0.399
	C168.548,315.057,172.618,312.064,172.618,305.4 M132.383,307.515h-5.347l2.713-9.178L132.383,307.515z M140.044,316.134
	l-7.661-21.668h-4.909l-8.02,21.668h4.669l1.835-5.188h7.382l1.876,5.188H140.044z M99.514,300.93c0,2.834-2.355,2.993-4.629,2.993
	h-1.956v-5.945h2.155C97.159,297.978,99.514,298.257,99.514,300.93 M105.619,316.134l-2.953-4.35
	c-0.998-1.476-2.155-2.952-2.833-3.87c-0.319-0.439-0.678-0.838-0.958-1.038c3.073-0.279,5.307-2.673,5.307-6.025
	c0-1.916-0.758-3.552-2.234-4.789c-1.357-1.117-3.352-1.516-6.185-1.516H88.5v21.588h4.429v-8.978c0.559,0,1.198,0.199,1.557,0.518
	c0.718,0.639,1.396,1.477,3.591,4.988l2.155,3.472L105.619,316.134L105.619,316.134z"/>
</svg>
